<svg width="24" height="24" viewBox="0 0 24 24" fill="none" xmlns="http://www.w3.org/2000/svg">
<g clip-path="url(#clip0_20249_66421)">
<path d="M5.51463 11.2851C3.93573 10.2647 2.79478 8.88942 1.83203 7.4453C1.52568 6.98577 0.904813 6.8616 0.445284 7.16795C-0.0142447 7.4743 -0.138418 8.09517 0.167934 8.5547C0.921689 9.68533 1.82554 10.8523 2.99331 11.8776L2.5 12.7321C2.22386 13.2103 2.38773 13.8219 2.86603 14.0981C3.34432 14.3742 3.95591 14.2103 4.23205 13.7321L4.6091 13.079C5.56564 13.6731 6.65092 14.1584 7.89412 14.4926L7.51761 15.8978C7.37467 16.4312 7.69125 16.9796 8.22472 17.1225C8.75818 17.2655 9.30652 16.9489 9.44946 16.4154L9.86274 14.873C10.5348 14.9561 11.2461 15 12 15C12.836 15 13.6197 14.9461 14.3555 14.8445L14.7765 16.4154C14.9194 16.9489 15.4677 17.2655 16.0012 17.1225C16.5347 16.9796 16.8512 16.4312 16.7083 15.8978L16.3162 14.4342C17.5451 14.082 18.6168 13.5802 19.5608 12.9714L20 13.7321C20.2761 14.2103 20.8877 14.3742 21.366 14.0981C21.8443 13.8219 22.0082 13.2103 21.732 12.7321L21.232 11.866C21.2079 11.8242 21.1812 11.7848 21.1522 11.7479C22.25 10.7545 23.1099 9.63791 23.832 8.5547C24.1384 8.09517 24.0142 7.4743 23.5547 7.16795C23.0952 6.8616 22.4743 6.98577 22.1679 7.4453C21.2052 8.88942 20.0642 10.2647 18.4853 11.2851C16.9193 12.2973 14.8608 13 12 13C9.13917 13 7.08069 12.2973 5.51463 11.2851Z" fill="black"/>
</g>
<defs>
<clipPath id="clip0_20249_66421">
<rect width="24" height="24" fill="white"/>
</clipPath>
</defs>
</svg>
