<svg width="24" height="24" viewBox="0 0 24 24" fill="none" xmlns="http://www.w3.org/2000/svg">
<path d="M17 12L17.7071 12.7071L18.4142 12L17.7071 11.2929L17 12ZM12.7071 6.29289C12.3166 5.90237 11.6834 5.90237 11.2929 6.29289C10.9024 6.68342 10.9024 7.31658 11.2929 7.70711L12.7071 6.29289ZM11.2929 16.2929C10.9024 16.6834 10.9024 17.3166 11.2929 17.7071C11.6834 18.0976 12.3166 18.0976 12.7071 17.7071L11.2929 16.2929ZM0 13H17V11H0V13ZM17.7071 11.2929L12.7071 6.29289L11.2929 7.70711L16.2929 12.7071L17.7071 11.2929ZM16.2929 11.2929L11.2929 16.2929L12.7071 17.7071L17.7071 12.7071L16.2929 11.2929Z" fill="#ABABAB"/>
<path d="M18 3H21C22.1046 3 23 3.89543 23 5V19C23 20.1046 22.1046 21 21 21H18" stroke="#ABABAB" stroke-width="2"/>
</svg>
