<svg width="124" height="32" viewBox="0 0 124 32" fill="none" xmlns="http://www.w3.org/2000/svg">
<path d="M11.8213 21L10.0413 16.4H3.36133L1.58133 21H0.181329L5.82133 6.76H7.60133L13.2213 21H11.8213ZM3.82133 15.2H9.56133L9.00133 13.72C8.908 13.4933 8.58133 12.6533 8.02133 11.2C7.46133 9.74667 7.028 8.62 6.72133 7.82H6.68133C5.628 10.58 4.868 12.5467 4.40133 13.72L3.82133 15.2ZM23.7435 6.76V21H22.5035V19.46H22.4635C22.1969 19.9933 21.7769 20.42 21.2035 20.74C20.6302 21.06 19.9835 21.22 19.2635 21.22C17.9569 21.22 16.9169 20.74 16.1435 19.78C15.3702 18.82 14.9835 17.5267 14.9835 15.9C14.9835 14.2733 15.3702 12.98 16.1435 12.02C16.9169 11.06 17.9569 10.58 19.2635 10.58C19.9835 10.58 20.6302 10.74 21.2035 11.06C21.7769 11.38 22.1969 11.8067 22.4635 12.34H22.5035V6.76H23.7435ZM19.4635 11.62C18.4902 11.62 17.7169 12.0067 17.1435 12.78C16.5702 13.5533 16.2835 14.5933 16.2835 15.9C16.2835 17.2067 16.5702 18.2467 17.1435 19.02C17.7169 19.7933 18.4902 20.18 19.4635 20.18C20.4102 20.18 21.1635 19.7933 21.7235 19.02C22.2835 18.2333 22.5635 17.1933 22.5635 15.9C22.5635 14.6067 22.2835 13.5733 21.7235 12.8C21.1635 12.0133 20.4102 11.62 19.4635 11.62ZM31.3321 10.58C32.5188 10.58 33.4454 10.9067 34.1121 11.56C34.7921 12.2133 35.1321 13.1867 35.1321 14.48V18.5C35.1321 19.46 35.2054 20.2933 35.3521 21H34.1921C34.0988 20.5467 34.0521 20.0333 34.0521 19.46H34.0121C33.3188 20.62 32.1121 21.2 30.3921 21.2C29.3654 21.2 28.5321 20.9267 27.8921 20.38C27.2654 19.8333 26.9521 19.1333 26.9521 18.28C26.9521 17.4133 27.2388 16.7333 27.8121 16.24C28.3988 15.7467 29.3988 15.3867 30.8121 15.16C31.7854 15 32.8254 14.88 33.9321 14.8V14.32C33.9321 13.4133 33.6988 12.74 33.2321 12.3C32.7654 11.86 32.1321 11.64 31.3321 11.64C30.5054 11.64 29.8654 11.8467 29.4121 12.26C28.9588 12.66 28.7121 13.2067 28.6721 13.9H27.3721C27.4388 12.9133 27.8121 12.1133 28.4921 11.5C29.1854 10.8867 30.1321 10.58 31.3321 10.58ZM33.9321 16.62V15.84C33.0654 15.9067 32.0788 16.0267 30.9721 16.2C29.9721 16.3467 29.2721 16.5733 28.8721 16.88C28.4721 17.1867 28.2721 17.6267 28.2721 18.2C28.2721 18.8 28.4788 19.28 28.8921 19.64C29.3188 19.9867 29.9054 20.16 30.6521 20.16C31.6388 20.16 32.4188 19.86 32.9921 19.26C33.3521 18.8867 33.5988 18.52 33.7321 18.16C33.8654 17.7867 33.9321 17.2733 33.9321 16.62ZM43.6404 10.58C44.9471 10.58 45.9871 11.06 46.7604 12.02C47.5337 12.98 47.9204 14.2733 47.9204 15.9C47.9204 17.5267 47.5337 18.82 46.7604 19.78C45.9871 20.74 44.9471 21.22 43.6404 21.22C42.9204 21.22 42.2737 21.06 41.7004 20.74C41.1271 20.42 40.7071 19.9933 40.4404 19.46H40.4004V24.7H39.1604V10.84H40.4004V12.34H40.4404C40.7071 11.8067 41.1271 11.38 41.7004 11.06C42.2737 10.74 42.9204 10.58 43.6404 10.58ZM43.4404 11.62C42.4937 11.62 41.7404 12.0133 41.1804 12.8C40.6204 13.5733 40.3404 14.6067 40.3404 15.9C40.3404 17.1933 40.6204 18.2333 41.1804 19.02C41.7404 19.7933 42.4937 20.18 43.4404 20.18C44.4137 20.18 45.1871 19.7933 45.7604 19.02C46.3337 18.2467 46.6204 17.2067 46.6204 15.9C46.6204 14.5933 46.3337 13.5533 45.7604 12.78C45.1871 12.0067 44.4137 11.62 43.4404 11.62ZM54.369 19.98C54.6223 19.98 54.8557 19.9533 55.069 19.9V20.96C54.7757 21.0267 54.469 21.06 54.149 21.06C53.269 21.06 52.6357 20.8467 52.249 20.42C51.8623 19.9933 51.669 19.2933 51.669 18.32V11.88H49.849V10.84H51.669V8.48H52.909V10.84H54.969V11.88H52.909V18.3C52.909 18.9 53.0157 19.3333 53.229 19.6C53.4557 19.8533 53.8357 19.98 54.369 19.98ZM59.3441 10.84V21H58.1041V10.84H59.3441ZM59.3441 6.76V8.52H58.1041V6.76H59.3441ZM70.8949 10.84L67.0949 21H65.4949L61.6949 10.84H63.0349L64.6349 15.24C64.7283 15.4933 64.9683 16.1667 65.3549 17.26C65.7549 18.34 66.0616 19.1867 66.2749 19.8H66.3149C66.5283 19.1867 66.8283 18.34 67.2149 17.26C67.6149 16.1667 67.8616 15.4933 67.9549 15.24L69.5549 10.84H70.8949ZM77.0798 20.2C77.8931 20.2 78.5598 20 79.0798 19.6C79.5998 19.1867 79.9398 18.6467 80.0998 17.98H81.3798C81.2064 18.9133 80.7464 19.6933 79.9998 20.32C79.2664 20.9467 78.2931 21.26 77.0798 21.26C75.6398 21.26 74.5064 20.7667 73.6798 19.78C72.8531 18.78 72.4398 17.4333 72.4398 15.74C72.4398 14.2067 72.8464 12.9667 73.6598 12.02C74.4864 11.06 75.5998 10.58 76.9998 10.58C78.1331 10.58 79.0731 10.9 79.8198 11.54C80.5798 12.18 81.0731 13.0667 81.2998 14.2C81.4064 14.68 81.4598 15.3333 81.4598 16.16H73.6998C73.7264 17.4667 74.0531 18.4667 74.6798 19.16C75.3064 19.8533 76.1064 20.2 77.0798 20.2ZM79.2798 12.56C78.6931 11.9467 77.9331 11.64 76.9998 11.64C76.0664 11.64 75.2998 11.9533 74.6998 12.58C74.0998 13.2067 73.7731 14.06 73.7198 15.14H80.2598C80.1931 14.0333 79.8664 13.1733 79.2798 12.56ZM94.1904 6.5C97.4971 6.5 99.1504 8.06 99.1504 11.18H97.8304C97.8304 8.84667 96.6171 7.68 94.1904 7.68C93.1904 7.68 92.4171 7.91333 91.8704 8.38C91.3237 8.83333 91.0504 9.46 91.0504 10.26C91.0504 11.06 91.3171 11.6467 91.8504 12.02C92.3971 12.38 93.3304 12.72 94.6504 13.04C95.2904 13.2 95.8037 13.34 96.1904 13.46C96.5904 13.58 97.0171 13.7533 97.4704 13.98C97.9237 14.1933 98.2771 14.44 98.5304 14.72C98.7837 14.9867 98.9904 15.3333 99.1504 15.76C99.3237 16.1733 99.4104 16.6533 99.4104 17.2C99.4104 18.44 98.9704 19.4267 98.0904 20.16C97.2237 20.8933 96.0437 21.26 94.5504 21.26C92.9237 21.26 91.6637 20.8333 90.7704 19.98C89.8904 19.1267 89.4504 17.8867 89.4504 16.26H90.7504C90.7504 17.5533 91.0837 18.5133 91.7504 19.14C92.4171 19.7533 93.3504 20.06 94.5504 20.06C95.6971 20.06 96.5704 19.8133 97.1704 19.32C97.7837 18.8267 98.0904 18.1267 98.0904 17.22C98.0904 16.4067 97.8104 15.8133 97.2504 15.44C96.6904 15.0667 95.7171 14.7067 94.3304 14.36C93.5304 14.16 92.8904 13.9733 92.4104 13.8C91.9437 13.6267 91.4837 13.3933 91.0304 13.1C90.5771 12.7933 90.2437 12.4133 90.0304 11.96C89.8304 11.4933 89.7304 10.9333 89.7304 10.28C89.7304 9.14667 90.1304 8.23333 90.9304 7.54C91.7304 6.84667 92.8171 6.5 94.1904 6.5ZM104.223 10.84V21H102.983V10.84H104.223ZM104.223 6.76V8.52H102.983V6.76H104.223ZM111.434 19.98C111.687 19.98 111.92 19.9533 112.134 19.9V20.96C111.84 21.0267 111.534 21.06 111.214 21.06C110.334 21.06 109.7 20.8467 109.314 20.42C108.927 19.9933 108.734 19.2933 108.734 18.32V11.88H106.914V10.84H108.734V8.48H109.974V10.84H112.034V11.88H109.974V18.3C109.974 18.9 110.08 19.3333 110.294 19.6C110.52 19.8533 110.9 19.98 111.434 19.98ZM118.677 20.2C119.491 20.2 120.157 20 120.677 19.6C121.197 19.1867 121.537 18.6467 121.697 17.98H122.977C122.804 18.9133 122.344 19.6933 121.597 20.32C120.864 20.9467 119.891 21.26 118.677 21.26C117.237 21.26 116.104 20.7667 115.277 19.78C114.451 18.78 114.037 17.4333 114.037 15.74C114.037 14.2067 114.444 12.9667 115.257 12.02C116.084 11.06 117.197 10.58 118.597 10.58C119.731 10.58 120.671 10.9 121.417 11.54C122.177 12.18 122.671 13.0667 122.897 14.2C123.004 14.68 123.057 15.3333 123.057 16.16H115.297C115.324 17.4667 115.651 18.4667 116.277 19.16C116.904 19.8533 117.704 20.2 118.677 20.2ZM120.877 12.56C120.291 11.9467 119.531 11.64 118.597 11.64C117.664 11.64 116.897 11.9533 116.297 12.58C115.697 13.2067 115.371 14.06 115.317 15.14H121.857C121.791 14.0333 121.464 13.1733 120.877 12.56Z" fill="black"/>
</svg>
